<svg xmlns="http://www.w3.org/2000/svg" width="19" height="19" viewBox="0 0 19 19" fill="none">
  <g clip-path="url(#clip0_253_591)">
    <path d="M9.26855 6.21094V9.21094L10.7686 10.7109" stroke="#374158" stroke-width="1.5" stroke-linecap="round" stroke-linejoin="round"/>
    <path d="M2.55615 8.46094C2.72422 6.81099 3.49385 5.28065 4.7182 4.16192C5.94255 3.04318 7.53592 2.41436 9.19431 2.39541C10.8527 2.37647 12.46 2.96874 13.7096 4.05922C14.9592 5.1497 15.7636 6.66205 15.9693 8.30774C16.175 9.95343 15.7676 11.6173 14.8249 12.9818C13.8822 14.3463 12.4701 15.316 10.8581 15.7058C9.24609 16.0957 7.54696 15.8784 6.0849 15.0955C4.62284 14.3126 3.50019 13.0188 2.93115 11.4609M2.55615 15.2109V11.4609H6.30615" stroke="#374158" stroke-width="1.5" stroke-linecap="round" stroke-linejoin="round"/>
  </g>
  <defs>
    <clipPath id="clip0_253_591">
      <rect width="18" height="18" fill="white" transform="translate(0.268555 0.210938)"/>
    </clipPath>
  </defs>
</svg>