<svg xmlns="http://www.w3.org/2000/svg" width="25" height="25" viewBox="0 0 25 25" fill="none">
  <path d="M13.6113 5.93359C13.6113 7.03816 11.1489 7.93359 8.11133 7.93359C5.07376 7.93359 2.61133 7.03816 2.61133 5.93359M13.6113 5.93359C13.6113 4.82902 11.1489 3.93359 8.11133 3.93359C5.07376 3.93359 2.61133 4.82902 2.61133 5.93359M13.6113 5.93359V7.43359M2.61133 5.93359V17.9336C2.61133 19.0382 5.07376 19.9336 8.11133 19.9336M8.11133 11.9336C7.94278 11.9336 7.77601 11.9308 7.61133 11.9254C4.80808 11.8336 2.61133 10.9769 2.61133 9.93359M8.11133 15.9336C5.07376 15.9336 2.61133 15.0382 2.61133 13.9336M22.6113 12.4336C22.6113 13.5382 20.1489 14.4336 17.1113 14.4336C14.0738 14.4336 11.6113 13.5382 11.6113 12.4336M22.6113 12.4336C22.6113 11.329 20.1489 10.4336 17.1113 10.4336C14.0738 10.4336 11.6113 11.329 11.6113 12.4336M22.6113 12.4336V19.9336C22.6113 21.0382 20.1489 21.9336 17.1113 21.9336C14.0738 21.9336 11.6113 21.0382 11.6113 19.9336V12.4336M22.6113 16.1836C22.6113 17.2882 20.1489 18.1836 17.1113 18.1836C14.0738 18.1836 11.6113 17.2882 11.6113 16.1836" stroke="white" stroke-width="2" stroke-linecap="round" stroke-linejoin="round"/>
</svg>