<svg xmlns="http://www.w3.org/2000/svg" width="19" height="19" viewBox="0 0 19 19" fill="none">
  <path d="M7.03123 8.62761L9.86456 11.4609M6.26239 15.9421C5.23726 16.9672 3.28125 16.7109 1.78125 16.7109C2.55008 15.2109 1.52495 13.2549 2.55008 12.2298C3.5752 11.2047 5.23726 11.2047 6.26239 12.2298C7.28751 13.2549 7.28751 14.917 6.26239 15.9421ZM9.22245 12.1544L16.0753 4.75335C16.6789 4.10148 16.6594 3.08914 16.0312 2.46094C15.403 1.83275 14.3907 1.81329 13.7388 2.41687L6.33775 9.2697C5.9553 9.62382 5.76407 9.80089 5.65255 9.98972C5.38511 10.4425 5.37435 11.0024 5.62418 11.4651C5.72837 11.6581 5.91265 11.8424 6.28121 12.2109C6.64977 12.5795 6.83405 12.7638 7.02703 12.868C7.4898 13.1178 8.04961 13.107 8.50243 12.8396C8.69127 12.7281 8.86833 12.5369 9.22245 12.1544Z" stroke="#374158" stroke-width="1.5" stroke-linecap="round" stroke-linejoin="round"/>
</svg>