<svg xmlns="http://www.w3.org/2000/svg" width="19" height="19" viewBox="0 0 19 19" fill="none">
  <g clip-path="url(#clip0_252_607)">
    <path d="M6.68262 11.2109C6.68262 12.1774 7.46612 12.9609 8.43262 12.9609H10.0576C11.0932 12.9609 11.9326 12.1215 11.9326 11.0859C11.9326 10.0504 11.0932 9.21094 10.0576 9.21094H8.55762C7.52208 9.21094 6.68262 8.37147 6.68262 7.33594C6.68262 6.3004 7.52208 5.46094 8.55762 5.46094H10.1826C11.1491 5.46094 11.9326 6.24444 11.9326 7.21094M9.30762 4.33594V5.46094M9.30762 12.9609V14.0859M16.8076 9.21094C16.8076 13.3531 13.4498 16.7109 9.30762 16.7109C5.16548 16.7109 1.80762 13.3531 1.80762 9.21094C1.80762 5.0688 5.16548 1.71094 9.30762 1.71094C13.4498 1.71094 16.8076 5.0688 16.8076 9.21094Z" stroke="#374158" stroke-width="1.5" stroke-linecap="round" stroke-linejoin="round"/>
  </g>
  <defs>
    <clipPath id="clip0_252_607">
      <rect width="18" height="18" fill="white" transform="translate(0.307617 0.210938)"/>
    </clipPath>
  </defs>
</svg>