<svg xmlns="http://www.w3.org/2000/svg" width="21" height="21" viewBox="0 0 21 21" fill="none">
  <path d="M2.1665 6.06885L8.9706 10.8317C9.52158 11.2174 9.79707 11.4102 10.0967 11.4849C10.3614 11.5509 10.6383 11.5509 10.903 11.4849C11.2026 11.4102 11.4781 11.2174 12.0291 10.8317L18.8332 6.06885M6.1665 16.9022H14.8332C16.2333 16.9022 16.9334 16.9022 17.4681 16.6297C17.9386 16.39 18.321 16.0076 18.5607 15.5372C18.8332 15.0024 18.8332 14.3023 18.8332 12.9022V7.56885C18.8332 6.16872 18.8332 5.46865 18.5607 4.93387C18.321 4.46347 17.9386 4.08101 17.4681 3.84133C16.9334 3.56885 16.2333 3.56885 14.8332 3.56885H6.1665C4.76637 3.56885 4.06631 3.56885 3.53153 3.84133C3.06112 4.08101 2.67867 4.46347 2.43899 4.93387C2.1665 5.46865 2.1665 6.16872 2.1665 7.56885V12.9022C2.1665 14.3023 2.1665 15.0024 2.43899 15.5372C2.67867 16.0076 3.06112 16.39 3.53153 16.6297C4.06631 16.9022 4.76637 16.9022 6.1665 16.9022Z" stroke="black" stroke-opacity="0.6" stroke-width="1.25" stroke-linecap="round" stroke-linejoin="round"/>
</svg>