<svg xmlns="http://www.w3.org/2000/svg" width="19" height="19" viewBox="0 0 19 19" fill="none">
  <g clip-path="url(#clip0_253_574)">
    <path d="M16.0576 10.7109L13.8076 8.46094H8.55762C8.3587 8.46094 8.16794 8.38192 8.02729 8.24127C7.88663 8.10062 7.80762 7.90985 7.80762 7.71094V3.21094C7.80762 3.01203 7.88663 2.82126 8.02729 2.68061C8.16794 2.53996 8.3587 2.46094 8.55762 2.46094H15.3076C15.5065 2.46094 15.6973 2.53996 15.8379 2.68061C15.9786 2.82126 16.0576 3.01203 16.0576 3.21094V10.7109Z" stroke="#374158" stroke-width="1.5" stroke-linecap="round" stroke-linejoin="round"/>
    <path d="M10.8076 11.4609V12.9609C10.8076 13.1598 10.7286 13.3506 10.5879 13.4913C10.4473 13.6319 10.2565 13.7109 10.0576 13.7109H4.80762L2.55762 15.9609V8.46094C2.55762 8.26203 2.63663 8.07126 2.77729 7.93061C2.91794 7.78996 3.1087 7.71094 3.30762 7.71094H4.80762" stroke="#374158" stroke-width="1.5" stroke-linecap="round" stroke-linejoin="round"/>
  </g>
  <defs>
    <clipPath id="clip0_253_574">
      <rect width="18" height="18" fill="white" transform="translate(0.307617 0.210938)"/>
    </clipPath>
  </defs>
</svg>