<svg xmlns="http://www.w3.org/2000/svg" width="21" height="21" viewBox="0 0 21 21" fill="none">
  <g clip-path="url(#clip0_74_1764)">
    <path d="M15.2143 14.1159L11.6785 17.6518C11.366 17.964 10.9423 18.1393 10.5006 18.1393C10.0588 18.1393 9.63518 17.964 9.32267 17.6518L5.786 14.1159C4.85368 13.1836 4.21878 11.9957 3.96157 10.7025C3.70437 9.4093 3.83641 8.06887 4.341 6.85072C4.8456 5.63256 5.70008 4.59139 6.7964 3.85886C7.89272 3.12634 9.18164 2.73535 10.5002 2.73535C11.8187 2.73535 13.1076 3.12634 14.2039 3.85886C15.3003 4.59139 16.1547 5.63256 16.6593 6.85072C17.1639 8.06887 17.296 9.4093 17.0388 10.7025C16.7816 11.9957 16.1466 13.1836 15.2143 14.1159V14.1159Z" stroke="black" stroke-opacity="0.6" stroke-width="1.25" stroke-linecap="round" stroke-linejoin="round"/>
    <path d="M10.5 11.9019C11.8807 11.9019 13 10.7826 13 9.40186C13 8.02114 11.8807 6.90186 10.5 6.90186C9.11929 6.90186 8 8.02114 8 9.40186C8 10.7826 9.11929 11.9019 10.5 11.9019Z" stroke="black" stroke-opacity="0.6" stroke-width="1.2" stroke-linecap="round" stroke-linejoin="round"/>
  </g>
  <defs>
    <clipPath id="clip0_74_1764">
      <rect width="20" height="20" fill="white" transform="translate(0.5 0.235352)"/>
    </clipPath>
  </defs>
</svg>