<svg xmlns="http://www.w3.org/2000/svg" width="19" height="19" viewBox="0 0 19 19" fill="none">
  <g clip-path="url(#clip0_254_616)">
    <path d="M15.2949 6.21094H3.29492C2.88071 6.21094 2.54492 6.54672 2.54492 6.96094V8.46094C2.54492 8.87515 2.88071 9.21094 3.29492 9.21094H15.2949C15.7091 9.21094 16.0449 8.87515 16.0449 8.46094V6.96094C16.0449 6.54672 15.7091 6.21094 15.2949 6.21094Z" stroke="#374158" stroke-width="1.5" stroke-linecap="round" stroke-linejoin="round"/>
    <path d="M9.29492 6.21094V15.9609" stroke="#374158" stroke-width="1.5" stroke-linecap="round" stroke-linejoin="round"/>
    <path d="M14.5449 9.21094V14.4609C14.5449 14.8588 14.3869 15.2403 14.1056 15.5216C13.8243 15.8029 13.4427 15.9609 13.0449 15.9609H5.54492C5.1471 15.9609 4.76557 15.8029 4.48426 15.5216C4.20296 15.2403 4.04492 14.8588 4.04492 14.4609V9.21094" stroke="#374158" stroke-width="1.5" stroke-linecap="round" stroke-linejoin="round"/>
    <path d="M5.91992 6.21095C5.42264 6.21095 4.94573 6.0134 4.5941 5.66177C4.24247 5.31014 4.04492 4.83323 4.04492 4.33595C4.04492 3.83866 4.24247 3.36175 4.5941 3.01012C4.94573 2.65849 5.42264 2.46095 5.91992 2.46095C6.64344 2.44834 7.35244 2.79939 7.95447 3.46832C8.55651 4.13724 9.02363 5.093 9.29492 6.21095C9.56622 5.093 10.0333 4.13724 10.6354 3.46832C11.2374 2.79939 11.9464 2.44834 12.6699 2.46095C13.1672 2.46095 13.6441 2.65849 13.9957 3.01012C14.3474 3.36175 14.5449 3.83866 14.5449 4.33595C14.5449 4.83323 14.3474 5.31014 13.9957 5.66177C13.6441 6.0134 13.1672 6.21095 12.6699 6.21095" stroke="#374158" stroke-width="1.5" stroke-linecap="round" stroke-linejoin="round"/>
  </g>
  <defs>
    <clipPath id="clip0_254_616">
      <rect width="18" height="18" fill="white" transform="translate(0.294922 0.210938)"/>
    </clipPath>
  </defs>
</svg>