<svg xmlns="http://www.w3.org/2000/svg" width="19" height="19" viewBox="0 0 19 19" fill="none">
  <path d="M5.54492 7.33593L1.79492 9.21093L9.02659 12.8268C9.12498 12.876 9.17417 12.9006 9.22577 12.9102C9.27147 12.9188 9.31837 12.9188 9.36407 12.9102C9.41567 12.9006 9.46486 12.876 9.56325 12.8268L16.7949 9.21093L13.0449 7.33593M5.54492 11.0859L1.79492 12.9609L9.02659 16.5768C9.12498 16.626 9.17417 16.6506 9.22577 16.6602C9.27147 16.6688 9.31837 16.6688 9.36407 16.6602C9.41567 16.6506 9.46486 16.626 9.56325 16.5768L16.7949 12.9609L13.0449 11.0859M1.79492 5.46093L9.02659 1.84509C9.12498 1.7959 9.17417 1.7713 9.22577 1.76162C9.27147 1.75304 9.31837 1.75304 9.36407 1.76162C9.41567 1.7713 9.46486 1.7959 9.56325 1.84509L16.7949 5.46093L9.56325 9.07676C9.46486 9.12595 9.41567 9.15055 9.36407 9.16023C9.31837 9.16881 9.27147 9.16881 9.22577 9.16023C9.17417 9.15055 9.12498 9.12595 9.02659 9.07676L1.79492 5.46093Z" stroke="#374158" stroke-width="1.5" stroke-linecap="round" stroke-linejoin="round"/>
</svg>