<svg xmlns="http://www.w3.org/2000/svg" width="19" height="19" viewBox="0 0 19 19" fill="none">
  <g clip-path="url(#clip0_252_627)">
    <path d="M4.04492 9.21094C4.04492 6.31144 6.39543 3.96094 9.29492 3.96094M12.6699 5.83594L9.29485 9.21094M16.7949 9.21094C16.7949 13.3531 13.4371 16.7109 9.29492 16.7109C5.15279 16.7109 1.79492 13.3531 1.79492 9.21094C1.79492 5.0688 5.15279 1.71094 9.29492 1.71094C13.4371 1.71094 16.7949 5.0688 16.7949 9.21094ZM10.0449 9.21094C10.0449 9.62515 9.70914 9.96094 9.29492 9.96094C8.88071 9.96094 8.54492 9.62515 8.54492 9.21094C8.54492 8.79672 8.88071 8.46094 9.29492 8.46094C9.70914 8.46094 10.0449 8.79672 10.0449 9.21094Z" stroke="#374158" stroke-width="1.5" stroke-linecap="round" stroke-linejoin="round"/>
  </g>
  <defs>
    <clipPath id="clip0_252_627">
      <rect width="18" height="18" fill="white" transform="translate(0.294922 0.210938)"/>
    </clipPath>
  </defs>
</svg>