<svg xmlns="http://www.w3.org/2000/svg" width="19" height="19" viewBox="0 0 19 19" fill="none">
  <g clip-path="url(#clip0_254_605)">
    <path d="M6.28125 3.96094H4.78125C4.38343 3.96094 4.00189 4.11897 3.72059 4.40028C3.43929 4.68158 3.28125 5.06311 3.28125 5.46094V14.4609C3.28125 14.8588 3.43929 15.2403 3.72059 15.5216C4.00189 15.8029 4.38343 15.9609 4.78125 15.9609H9.054" stroke="#374158" stroke-width="1.5" stroke-linecap="round" stroke-linejoin="round"/>
    <path d="M13.7812 10.7109V13.7109H16.7812" stroke="#374158" stroke-width="1.5" stroke-linecap="round" stroke-linejoin="round"/>
    <path d="M13.7812 8.46094V5.46094C13.7812 5.06311 13.6232 4.68158 13.3419 4.40028C13.0606 4.11897 12.6791 3.96094 12.2812 3.96094H10.7812" stroke="#374158" stroke-width="1.5" stroke-linecap="round" stroke-linejoin="round"/>
    <path d="M9.28125 2.46094H7.78125C6.95282 2.46094 6.28125 3.13251 6.28125 3.96094C6.28125 4.78936 6.95282 5.46094 7.78125 5.46094H9.28125C10.1097 5.46094 10.7812 4.78936 10.7812 3.96094C10.7812 3.13251 10.1097 2.46094 9.28125 2.46094Z" stroke="#374158" stroke-width="1.5" stroke-linecap="round" stroke-linejoin="round"/>
    <path d="M13.7812 16.7109C15.4381 16.7109 16.7812 15.3678 16.7812 13.7109C16.7812 12.0541 15.4381 10.7109 13.7812 10.7109C12.1244 10.7109 10.7812 12.0541 10.7812 13.7109C10.7812 15.3678 12.1244 16.7109 13.7812 16.7109Z" stroke="#374158" stroke-width="1.5" stroke-linecap="round" stroke-linejoin="round"/>
    <path d="M6.28125 8.46094H9.28125" stroke="#374158" stroke-width="1.5" stroke-linecap="round" stroke-linejoin="round"/>
    <path d="M6.28125 11.4609H8.53125" stroke="#374158" stroke-width="1.5" stroke-linecap="round" stroke-linejoin="round"/>
  </g>
  <defs>
    <clipPath id="clip0_254_605">
      <rect width="18" height="18" fill="white" transform="translate(0.28125 0.210938)"/>
    </clipPath>
  </defs>
</svg>