<svg xmlns="http://www.w3.org/2000/svg" width="19" height="19" viewBox="0 0 19 19" fill="none">
  <g clip-path="url(#clip0_253_584)">
    <path d="M6.30762 11.4609C6.30762 10.6325 5.63604 9.96094 4.80762 9.96094C3.97919 9.96094 3.30762 10.6325 3.30762 11.4609V12.9609C3.30762 13.7894 3.97919 14.4609 4.80762 14.4609C5.63604 14.4609 6.30762 13.7894 6.30762 12.9609V11.4609Z" stroke="#374158" stroke-width="1.35" stroke-linecap="round" stroke-linejoin="round"/>
    <path d="M15.3076 11.4609C15.3076 10.6325 14.636 9.96094 13.8076 9.96094C12.9792 9.96094 12.3076 10.6325 12.3076 11.4609V12.9609C12.3076 13.7894 12.9792 14.4609 13.8076 14.4609C14.636 14.4609 15.3076 13.7894 15.3076 12.9609V11.4609Z" stroke="#374158" stroke-width="1.35" stroke-linecap="round" stroke-linejoin="round"/>
    <path d="M3.30762 11.4609V9.21094C3.30762 7.61964 3.93976 6.09352 5.06498 4.9683C6.19019 3.84308 7.71632 3.21094 9.30762 3.21094C10.8989 3.21094 12.425 3.84308 13.5503 4.9683C14.6755 6.09352 15.3076 7.61964 15.3076 9.21094V11.4609" stroke="#374158" stroke-width="1.35" stroke-linecap="round" stroke-linejoin="round"/>
    <path d="M13.8076 14.4609C13.8076 15.0577 13.3335 15.63 12.4896 16.0519C11.6457 16.4739 10.5011 16.7109 9.30762 16.7109" stroke="#374158" stroke-width="1.35" stroke-linecap="round" stroke-linejoin="round"/>
  </g>
  <defs>
    <clipPath id="clip0_253_584">
      <rect width="18" height="18" fill="white" transform="translate(0.307617 0.210938)"/>
    </clipPath>
  </defs>
</svg>