<svg width="285" height="258" viewBox="0 0 285 258" fill="none" xmlns="http://www.w3.org/2000/svg">
<path d="M112.625 28.875L113.375 29.625L115.125 35.875L118.125 44.875L120.375 50.375L122.125 54.375L124.625 59.125L128.125 65.625L131.125 70.875L134.625 76.625L137.375 80.875L139.125 83.375L142.125 87.625L145.625 92.375L148.625 96.625L152.875 103.125L153.875 104.875L154.375 105.125L154.875 102.625L156.375 97.125L158.125 93.125L160.375 90.625L162.125 89.125L166.125 87.125L170.125 86.125H172.375L176.625 87.125L180.625 89.125L183.125 90.875H187.375L199.625 89.875L205.375 89.375H207.125L207.625 89.625L207.375 90.625L202.625 92.125L186.875 96.125L183.875 96.875L183.375 98.375L181.625 101.125L179.875 103.125L176.875 105.375L175.625 107.375L174.625 110.125L174.375 112.375L173.875 124.125L173.125 128.875L171.625 133.375L169.125 138.125L166.625 141.625L163.625 144.875L161.125 147.375L157.375 149.875L154.375 151.125L152.625 151.625H148.875L145.375 150.875L147.375 154.625L151.125 160.125L154.375 164.625L156.625 168.625L158.125 172.125L159.375 176.875L159.875 181.125V185.875L159.375 189.625L158.875 190.625L157.625 190.375V188.625H157.125L156.875 190.875L155.625 196.125L153.125 203.375L151.625 206.625L150.375 206.875L150.625 204.125L150.875 203.125V200.375L148.625 206.375L145.875 211.375L143.375 214.625L140.625 217.625L139.125 218.125L139.375 216.375L141.625 210.625H140.875L140.375 211.875L137.125 217.375L135.125 220.125L132.125 223.625L126.875 228.875L125.375 229.125L125.875 227.375L127.125 225.375L130.625 218.625L132.625 214.625L134.375 210.875L133.375 211.125L132.875 212.375L130.625 215.375L127.625 218.875L126.625 219.875H125.375L125.625 218.125L127.875 208.875L129.625 199.875L130.625 192.375L131.125 186.625V175.375L129.875 162.125L129.625 158.375V151.875L130.375 144.375L131.875 137.625L133.625 132.375L135.625 128.375L137.625 124.625L139.375 121.875L140.125 120.125L140.375 118.875L137.125 119.375L131.125 121.375L124.875 123.875L120.125 125.125H115.125L110.625 124.375L107.375 123.375L103.375 121.375L102.375 120.625V119.875L107.375 120.125H111.125L114.875 119.625L114.625 119.375L108.125 118.625L103.875 117.375L99.375 115.375L96.375 113.625L95.875 112.625L99.375 112.875L104.375 113.625L107.125 113.875V113.375L102.625 112.375L99.625 111.375L94.375 109.125L91.875 107.375L90.375 106.125V105.625H92.375L96.875 106.625L99.375 106.875L98.875 106.375L93.625 104.375L89.125 101.875L85.375 98.625L83.625 96.875V96.125L85.125 96.375L88.875 97.875L94.125 99.375L99.625 100.375L98.375 99.375L93.125 96.875L89.125 94.375L86.375 92.125L83.375 89.375L82.375 87.625L83.375 87.375L89.625 90.375L91.125 90.875L90.125 89.625L87.375 87.625L84.375 84.875L82.125 82.375L80.375 79.875L78.375 75.875V74.875L79.625 75.375L82.625 78.625L86.125 81.375L88.125 82.625L87.625 81.625L86.375 80.375V79.875H85.875L82.875 75.875L80.375 71.875L79.125 69.375L78.125 66.875L77.375 65.375V64.375L78.375 64.875L80.125 66.875L80.625 67.375L80.375 66.125L78.875 62.625L78.375 60.625V58.375L79.625 59.625L81.875 62.875L84.875 66.375L86.125 67.375L84.625 64.625L82.625 61.375L81.375 58.375L80.375 54.375L79.625 51.125V50.125H80.375L83.125 54.375L85.875 57.875L88.625 60.875L89.625 62.125L91.375 63.375L90.125 61.375L87.625 57.875L85.625 53.625L84.625 48.875V47.875H85.625L87.625 51.625L89.625 54.375L91.875 56.875L100.125 65.125L102.125 66.875L105.125 69.625L106.375 70.625L107.125 70.875L105.625 68.125L105.125 66.375V64.625L106.375 65.125L108.625 68.125L109.375 68.625L108.875 67.125L106.875 63.125L105.375 58.125L104.625 53.625V52.125H105.625L107.625 55.375L110.125 59.125L109.875 57.625L108.375 53.875L107.375 49.625L107.125 48.125V41.125L107.375 40.125L108.125 40.375L109.875 44.375L114.125 53.125L113.875 51.375L112.625 46.875L111.625 41.875L111.375 40.125V34.625L112.125 29.875L112.625 28.875Z" fill="#fff"/>
<path d="M98.625 74.125L99.625 74.375L103.625 76.375L107.375 78.375L110.125 80.375L112.625 81.875L110.875 79.875L106.375 75.375L106.125 74.375H107.125L109.375 76.375L112.125 78.625L114.375 80.625L116.375 81.875L118.125 82.875L120.125 84.375V84.875L121.125 85.375L122.375 86.375L123.625 87.875V88.875L124.375 89.125L125.125 89.875L127.375 91.375L128.625 92.375V92.875L129.875 93.375L138.125 98.875L140.875 101.625L142.875 103.375L148.375 107.875L149.875 109.625L151.125 110.875L152.875 112.875L154.625 115.625L154.375 117.625L152.625 120.375L151.125 121.625H150.625L150.125 122.625L148.375 123.875H147.375V124.375L146.625 124.625V126.375L147.625 125.875L149.625 124.125H150.125V123.625L151.375 122.625H151.875V122.125L153.125 121.375L154.125 119.625L154.875 117.625L155.875 116.375L154.875 115.875L153.375 112.875L150.625 109.875L151.125 109.125L155.125 108.375L156.125 107.875L157.875 105.875L159.375 104.125L160.125 102.625L160.875 102.375L160.375 101.625H159.375L158.625 103.875L156.625 106.625H155.875L156.125 105.125L157.125 102.625L157.375 101.125V99.375L158.375 95.875L159.875 93.375L160.375 92.625L161.125 92.375L162.125 91.375L164.125 90.125L165.375 89.625H166.125V89.125L167.875 88.625H171.875L172.125 89.375L174.125 89.625L175.625 89.875L176.375 89.375L177.375 89.875V90.375H178.625L180.125 91.125L182.125 92.875V93.625L183.625 93.875L183.375 95.125L180.875 94.875L179.625 95.125L176.875 93.125L174.625 91.625L172.875 91.375L171.875 91.875L170.875 93.375L170.375 95.375L171.625 95.875L172.375 96.375H174.375L175.625 95.125L175.875 93.625L177.625 94.625L178.375 95.625L177.875 96.625L176.375 98.875L177.125 99.125L178.375 97.375L180.625 96.375H181.625L181.875 97.125L180.875 98.125V98.875L179.375 101.125L177.125 103.375L175.375 104.625L174.375 104.875H171.125L167.625 104.375L162.625 102.625L162.125 102.375V102.875L168.875 105.125L170.875 105.625L174.375 105.875L174.125 107.125L172.625 111.875L171.125 113.125L171.375 114.375L172.125 115.125L171.625 116.875L170.375 117.875L167.625 118.875L166.625 119.125H164.875L165.125 119.625L166.625 119.875L169.125 119.125L171.125 117.875H172.125V119.125L170.875 120.125L168.375 120.625L165.375 121.125L164.125 120.625L160.875 120.125H158.625L157.125 120.875L155.875 122.875L155.625 123.625V127.625L156.125 130.625V134.375L155.125 137.375L152.625 142.125L149.875 145.375V146.625L151.375 147.875L152.125 148.125H154.125L155.625 147.625L156.875 147.875L155.625 148.875L153.125 149.875H148.875L145.875 149.125L143.875 147.875V146.875L146.125 144.375L149.375 141.375L151.375 139.625L152.875 137.875L154.125 135.375L154.875 132.125L154.125 126.125L153.875 125.125L153.625 131.875L152.375 136.125L150.375 138.875L148.625 140.625L146.375 142.125L143.875 144.375L143.125 145.125L142.625 145.875L142.125 148.375L138.125 153.875L136.125 155.625L134.625 156.125L132.625 157.625L132.125 158.375H131.625L131.375 157.625V149.125L131.625 145.625L132.625 140.625L134.125 135.125L135.125 132.625L136.375 130.375L138.125 128.625H139.625L139.875 129.125L140.875 128.875L143.125 125.625L145.125 124.125L147.375 122.875L148.625 121.625L149.625 119.875L148.875 117.375L147.125 115.375V114.875L146.125 114.375L143.125 110.875L140.875 107.875L138.625 102.625L137.125 100.875L135.625 99.875V99.375H134.875L134.625 98.875L133.125 98.125L132.375 97.875L132.125 98.875L130.125 98.625L127.125 97.375L123.875 95.625L122.125 93.625L120.125 91.125L119.375 90.625V89.125L120.375 88.875L121.875 90.125L122.375 89.875L121.625 88.625L120.875 86.625L117.875 84.375L117.375 83.375L115.875 83.125L117.125 85.625L118.125 86.875L118.375 89.625L120.875 93.625L121.125 94.875L120.375 95.125L120.875 97.625L121.625 98.625L122.125 99.875L122.625 102.375L124.625 104.875L124.875 106.125L124.125 106.375L123.125 106.125L117.125 105.875L114.375 105.375L110.375 104.125L108.125 103.125V102.625H114.875L114.625 101.625L110.875 100.625L108.375 99.875L105.625 98.375L103.375 96.875L103.625 96.375L107.375 97.125L110.125 97.625H112.375L111.875 97.125L108.625 96.125L105.625 94.625L103.375 92.875L101.375 91.625V90.875L102.875 91.125L106.875 92.625L108.625 93.125H109.875L107.125 91.625L103.375 89.375L102.125 88.375V87.875H101.625L100.875 86.625V86.125L99.875 85.625L98.625 84.125V83.625L100.125 84.125L104.875 86.625L107.125 87.625L108.375 87.875L107.375 86.875L104.375 85.125L100.875 82.625L98.375 80.125L98.125 78.875L99.375 79.125L102.375 80.875L101.625 79.625V79.125H101.125L99.125 76.375L98.375 74.375L98.625 74.125Z" fill="#BCD2FF"/>
<path d="M167.875 88.625H171.875L172.125 89.375L174.125 89.625L175.625 89.875L176.375 89.375L177.375 89.875V90.375H178.625L180.125 91.125L182.125 92.875V93.625L183.625 93.875L183.375 95.125L180.875 94.875L179.625 95.125L176.875 93.125L174.625 91.625L172.875 91.375L171.875 91.875L170.875 93.375L170.375 95.375L171.625 95.875L172.375 96.375H174.375L175.625 95.125L175.875 93.625L177.625 94.625L178.375 95.625L177.875 96.625L176.375 98.875L177.125 99.125L178.375 97.375L180.625 96.375H181.625L181.875 97.125L180.875 98.125V98.875L179.375 101.125L177.125 103.375L175.375 104.625L174.375 104.875H171.125L167.625 104.375L162.625 102.625L162.125 102.375V102.875L168.875 105.125L170.875 105.625L174.375 105.875L174.125 107.125L172.625 111.875L171.125 113.125L171.375 114.375L172.125 115.125L171.625 116.875L170.375 117.875L167.625 118.875L166.625 119.125H164.875L165.125 119.625L166.625 119.875L169.125 119.125L171.125 117.875H172.125V119.125L170.875 120.125L168.375 120.625L165.375 121.125L164.125 120.625L160.875 120.125H158.625L157.125 120.875L155.875 122.875L155.625 123.625V127.625L156.125 130.625V134.375L155.125 137.375L152.625 142.125L149.875 145.375V146.625L151.375 147.875L152.125 148.125H154.125L155.625 147.625L156.875 147.875L155.625 148.875L153.125 149.875H148.875L145.875 149.125L143.875 147.875V146.875L146.125 144.375L149.375 141.375L151.375 139.625L152.875 137.875L154.125 135.375L154.875 132.125L154.125 126.125L153.875 120.875L154.625 118.125L155.875 116.375L154.875 115.875L153.375 112.875L150.625 109.875L151.125 109.125L155.125 108.375L156.125 107.875L157.875 105.875L159.375 104.125L160.125 102.625L160.875 102.375L160.375 101.625H159.375L158.625 103.875L156.625 106.625H155.875L156.125 105.125L157.125 102.625L157.375 101.125V99.375L158.375 95.875L159.875 93.375L160.375 92.625L161.125 92.375L162.125 91.375L164.125 90.125L165.375 89.625H166.125V89.125L167.875 88.625Z" fill="#BCD2FF"/>
<path d="M98.625 74.125L99.625 74.375L103.625 76.375L107.375 78.375L110.125 80.375L112.625 81.875L110.875 79.875L106.375 75.375L106.125 74.375H107.125L109.375 76.375L112.125 78.625L114.375 80.625L116.625 82.125L116.375 83.125H115.875L117.125 85.625L118.125 86.875L118.375 89.625L120.875 93.625L121.125 94.875L120.375 95.125L120.875 97.625L121.625 98.625L122.125 99.875L122.625 102.375L124.625 104.875L124.875 106.125L124.125 106.375L123.125 106.125L117.125 105.875L114.375 105.375L110.375 104.125L108.125 103.125V102.625H114.875L114.625 101.625L110.875 100.625L108.375 99.875L105.625 98.375L103.375 96.875L103.625 96.375L107.375 97.125L110.125 97.625H112.375L111.875 97.125L108.625 96.125L105.625 94.625L103.375 92.875L101.375 91.625V90.875L102.875 91.125L106.875 92.625L108.625 93.125H109.875L107.125 91.625L103.375 89.375L102.125 88.375V87.875H101.625L100.875 86.625V86.125L99.875 85.625L98.625 84.125V83.625L100.125 84.125L104.875 86.625L107.125 87.625L108.375 87.875L107.375 86.875L104.375 85.125L100.875 82.625L98.375 80.125L98.125 78.875L99.375 79.125L102.375 80.875L101.625 79.625V79.125H101.125L99.125 76.375L98.375 74.375L98.625 74.125Z" fill="#FEFEFF"/>
<path d="M121.875 95.375L123.375 95.625L124.875 96.875L129.875 99.125L133.625 100.625L137.375 102.875L138.625 104.375V105.625L136.375 104.625L134.625 104.125L134.875 104.875L136.375 105.375L138.375 106.625L139.625 107.375L141.125 109.125V109.875L139.375 109.625L137.625 108.875L132.375 107.625H131.375L138.375 109.625V110.125L139.375 110.375L141.875 111.125L144.625 113.375L146.375 115.625L148.125 118.375V120.125L147.125 121.625L144.625 123.375L143.375 124.375L142.125 125.625L141.875 124.875L142.625 123.375L144.625 121.375L145.125 119.375H144.625L144.125 120.375L142.125 122.625L141.375 123.375L140.625 123.125L141.375 120.875L142.375 118.875L142.875 118.125H143.375L142.625 117.375L140.875 116.625H138.375L134.375 115.875L132.875 115.375V115.875L135.875 116.875V117.625L130.625 119.125L127.625 120.125H124.875L123.625 119.375L121.875 118.875V118.375L127.875 115.875L129.375 115.125L128.375 114.875L126.625 115.125H122.625L116.875 114.125L116.125 113.875L116.375 113.125L120.625 111.875L122.375 111.625V111.125L120.125 110.625L115.875 109.875L111.375 108.875L111.125 108.125L116.125 107.125L118.125 106.875H125.125L128.875 110.625L129.625 112.375L131.125 111.875L133.875 112.625L137.125 112.875L132.375 111.375L129.375 109.875V109.125L128.375 108.625L127.375 107.625V106.875L128.125 106.375V105.875H126.875L125.875 105.375L125.625 104.375L124.625 104.125V102.875L123.875 101.625V101.125L126.125 101.625L129.875 102.875L132.875 103.625H133.625L127.875 101.875L124.875 100.875L122.875 99.125L122.625 97.875L121.875 97.125L121.625 95.875L121.875 95.375Z" fill="#BCD2FF"/>
<path d="M123.125 63.375L124.125 63.625L125.625 66.125L127.125 68.875L130.625 74.625L132.375 77.125L134.375 80.125L136.875 84.125L136.625 85.875L138.625 88.625L140.375 91.875V92.875L138.875 92.625L141.125 94.875L143.625 98.375L145.625 101.125L145.375 102.125L142.875 99.875L140.875 97.875L138.875 96.125L139.125 97.375L137.875 97.125L134.375 94.625L131.875 92.375L129.375 90.375L125.375 87.125L122.125 84.625L119.625 82.375L118.625 81.375L118.875 80.875L120.625 81.875L123.625 84.375L126.125 85.875L123.875 83.125L121.875 80.625L120.875 79.125L120.125 77.625V76.125L121.125 76.625L122.125 77.875V78.375L123.125 78.875L124.875 80.875L129.625 85.625L132.375 87.875L133.875 88.875L131.875 86.875L130.125 84.875L128.375 83.125L126.125 80.375L124.625 78.625L123.375 76.375L122.375 72.375L121.875 70.875V69.625L122.875 70.125L126.375 75.125V75.625H126.875L128.625 77.875L129.125 78.125L126.375 73.625L125.375 71.875L124.125 68.875L123.125 64.625V63.375Z" fill="#FEFEFF"/>
<path d="M133.875 158.625H134.375V166.125L135.375 177.375L135.625 185.875L136.125 186.125L136.375 178.125L136.625 177.125H137.125L137.625 179.875L137.875 182.375V178.375L137.625 176.375L137.375 171.375L137.125 167.375L137.625 167.125L138.875 171.875L139.375 175.375L139.625 179.875V187.875L139.125 192.625L138.125 197.375L136.375 202.625L134.375 206.875L132.375 210.125L129.375 214.625L128.625 214.375L129.625 210.375L131.125 203.625L132.375 196.125L133.125 188.875V174.625L132.125 165.625V160.625L133.875 158.625Z" fill="#FEFEFF"/>
<path d="M139.625 153.625L140.375 153.875L141.875 159.125L143.875 163.625V162.875L142.875 160.625V159.125L144.125 160.375L145.625 162.625L147.625 167.125L149.375 172.375L150.625 177.625L151.375 183.125V188.625L150.125 197.375L148.875 201.375L147.625 204.375L144.375 210.625L143.875 210.375L144.375 208.125L146.375 203.375L147.875 198.625L148.875 194.625L149.125 192.625V186.625L148.625 185.375L148.125 181.625L147.625 179.375L147.375 179.625V182.875L146.875 182.625L145.875 176.125L144.625 170.875L142.875 165.125L140.125 157.625L139.375 154.625L139.625 153.625Z" fill="#FEFEFF"/>
<path d="M118.125 106.875H125.125L128.875 110.625L130.375 113.625L132.375 115.375L135.875 116.875V117.625L130.625 119.125L127.625 120.125H124.875L123.625 119.375L121.875 118.875V118.375L127.875 115.875L129.375 115.125L128.375 114.875L126.625 115.125H122.625L116.875 114.125L116.125 113.875L116.375 113.125L120.625 111.875L122.375 111.625V111.125L120.125 110.625L115.875 109.875L111.375 108.875L111.125 108.125L116.125 107.125L118.125 106.875Z" fill="#FEFEFF"/>
<path d="M156.125 116.625L159.625 116.875L163.875 118.625L165.375 118.375L167.875 117.375L170.125 116.625V117.375L168.875 118.375L166.625 119.125H164.875L165.125 119.625L166.625 119.875L169.125 119.125L171.125 117.875H172.125V119.125L170.875 120.125L168.375 120.625L165.375 121.125L164.125 120.625L160.875 120.125H158.625L157.125 120.875L155.875 122.875L155.625 123.625V127.625L156.125 130.625V134.375L155.125 137.375L152.625 142.125L149.875 145.375V146.625L151.375 147.875L152.125 148.125H154.125L155.625 147.625L156.875 147.875L155.625 148.875L153.125 149.875H148.875L145.875 149.125L143.875 147.875V146.875L146.125 144.375L149.375 141.375L151.375 139.625L152.875 137.875L154.125 135.375L154.875 132.125L154.125 126.125L153.875 120.875L154.625 118.125L155.625 116.875L156.125 116.625Z" fill="#FEFEFF"/>
<path d="M167.875 88.625H171.875L172.125 89.375L174.125 89.625L175.625 89.875L176.375 89.375L177.375 89.875V90.375H178.625L180.125 91.125L182.125 92.875V93.625L183.625 93.875L183.375 95.125L180.875 94.875L179.625 95.125L176.875 93.125L174.625 91.625L172.875 91.375L171.875 91.875L170.875 93.375L170.375 94.625L170.125 94.875L166.875 95.375L163.875 96.375L162.375 97.375L160.875 99.375L158.875 102.875L158.375 104.125L156.625 106.625H155.875L156.125 105.125L157.125 102.625L157.375 101.125V99.375L158.375 95.875L159.875 93.375L160.375 92.625L161.125 92.375L162.125 91.375L164.125 90.125L165.375 89.625H166.125V89.125L167.875 88.625Z" fill="#fff"/>
<path d="M141.625 172.875L142.625 173.125L143.125 174.625L143.375 177.625L144.625 181.125L145.375 183.125L145.125 184.625V188.125L144.875 190.625L144.125 191.375L142.875 193.625L142.375 194.625L142.125 197.375L141.625 198.625L141.125 201.625L139.125 207.625L137.125 212.625L135.875 214.875L134.375 217.625H133.875V218.375H133.375L133.125 219.375H132.375L132.625 218.375L134.875 213.625L136.375 209.375L137.875 204.875L138.625 203.625L138.875 201.625L139.375 201.125L139.875 198.375L140.375 197.625L141.125 194.375L141.625 192.875L141.375 187.875L140.875 184.125L140.375 183.125L139.875 182.875V186.125H139.625L139.375 179.875V175.875H139.625V177.625L140.875 176.375L141.375 173.875L141.625 172.875Z" fill="#fff"/>
<path d="M153.375 128.875H153.625V131.625L152.375 135.875L150.375 138.625L148.625 140.375L146.375 141.875L143.875 144.125L143.125 144.875L142.625 145.625L142.125 148.125L138.125 153.625L136.125 155.375L134.625 155.875L133.125 156.875L133.625 155.625L135.375 153.625L139.375 147.125L142.375 141.875L144.375 138.875L146.625 136.375L148.625 134.875L150.625 133.625L151.875 133.375L153.125 131.375L153.375 128.875Z" fill="#fff"/>
<path d="M121.875 95.375L123.375 95.625L124.875 96.875L129.875 99.125L133.625 100.625L137.375 102.875L138.625 104.375V105.625L136.375 104.625L134.625 104.125L134.875 104.875L136.375 105.375L138.625 106.875V107.875L137.375 108.125L136.625 107.625L132.625 107.375L128.875 106.625L129.125 105.875L131.375 105.375L131.625 104.125L132.875 103.625H133.625L127.875 101.875L124.875 100.875L122.875 99.125L122.625 97.875L121.875 97.125L121.625 95.875L121.875 95.375Z" fill="#fff"/>
<path d="M152.875 128.625L153.375 128.875V131.625L151.875 133.875L150.125 134.375L146.875 136.625L145.125 138.375L142.625 142.125L138.625 149.125L135.375 154.125L133.375 156.625L132.125 158.375H131.625L131.375 156.875L131.875 155.375L135.375 150.375L137.875 145.875L139.375 142.875L142.625 137.875L144.625 135.625L146.875 134.125L150.375 132.375L151.875 130.625L152.875 128.625Z" fill="#FEFEFF"/>
<path d="M123.875 101.125L126.125 101.625L129.875 102.875L132.375 103.625L132.125 104.125H131.625V105.375L130.125 105.875L129.125 106.125L128.875 106.625L132.625 107.125L136.625 107.375L137.375 107.875L138.625 107.625V106.875L139.625 107.375L141.125 109.125V109.875L139.375 109.625L137.625 108.875L132.375 107.625H131.375L138.375 109.625L137.375 109.875L134.625 109.125L132.875 108.875L133.375 109.875L133.875 110.625L133.375 111.125L133.625 111.625L132.375 111.375L129.375 109.875V109.125L128.375 108.625L127.375 107.625V106.875L128.125 106.375V105.875H126.875L125.875 105.375L125.625 104.375L124.625 104.125V102.875L123.875 101.625V101.125Z" fill="#fff"/>
<path d="M172.625 90.125H175.125L177.875 91.875L179.125 93.125L180.625 94.125L180.125 95.125L178.875 94.625L175.375 92.125L173.875 91.375L172.375 91.625L171.125 92.875L170.375 94.625L170.125 94.875L166.875 95.375L163.875 96.375L162.375 97.375L160.875 99.375L158.625 103.375H158.125V101.875L159.375 98.625L161.875 94.875L162.625 94.625V95.125L165.375 93.625L168.125 91.375L170.375 91.125L171.875 90.875V90.375L172.625 90.125Z" fill="#FEFEFF"/>
<path d="M171.125 110.875H172.375L172.125 112.125L170.375 113.625L167.125 114.875L162.125 115.375L165.375 115.875V116.875H161.875L159.875 116.125L156.375 115.875L155.125 115.375V113.875L156.125 113.375L157.625 113.125H161.125L164.125 113.375L167.375 113.125L169.625 112.125L171.125 110.875Z" fill="#FEFEFF"/>
<path d="M170.375 113.375H170.875L171.875 114.875L172.125 115.625L171.375 117.125L170.375 117.875L168.875 118.375L170.125 116.875L167.875 117.625L165.375 118.625L163.875 118.875L159.625 117.125L155.625 116.875L155.875 116.375L154.875 115.875V115.375L159.875 115.875L161.875 116.625L165.375 116.875V115.875L161.625 115.625L162.125 115.125L167.125 114.625L170.375 113.375Z" fill="#fff"/>
<path d="M167.875 88.625H171.875L172.125 89.375L174.125 89.625L175.625 89.875L176.375 89.375L177.375 89.875V90.375H178.625L180.125 91.125L182.125 92.875V93.625L183.625 93.875L183.375 95.125L180.875 94.875H180.125L180.375 94.125L178.125 92.625L177.875 91.875L176.875 91.375L175.125 90.375H171.875V90.875L169.125 91.625L167.875 91.875L165.375 93.875L164.625 94.375L163.625 94.125L164.625 93.625L164.875 92.375L167.875 90.125H168.375L167.875 89.375H166.125L166.875 88.875L167.875 88.625Z" fill="#fff"/>
<path d="M147.375 178.625L147.875 179.375L148.625 183.625L149.125 186.125L149.375 186.625V192.625H149.125L148.875 189.375L147.875 194.875L147.125 196.125H146.875V193.875L147.125 191.875V187.375L146.625 183.375V181.625L147.125 182.625V179.375L147.375 178.625Z" fill="#fff"/>
<path d="M113.125 101.125L114.625 101.375L115.125 102.125L114.875 102.625H108.125V103.125L110.375 103.875L114.375 105.125L117.125 105.625L123.125 105.875L124.625 106.125L124.125 104.125L124.875 104.625L125.375 107.125L118.375 106.875V106.375L114.375 105.875L108.375 104.875L106.625 104.125L106.375 102.875V102.125L113.875 101.875V101.375L113.125 101.125Z" fill="#fff"/>
<path d="M132.125 103.875L134.875 104.625L137.625 106.125L138.875 107.125L138.625 107.875L137.375 108.125L136.625 107.625L132.625 107.375L128.875 106.625L129.125 105.875L131.375 105.375L131.625 104.125L132.125 103.875Z" fill="#FEFEFF"/>
<path d="M132.875 108.875H134.625L139.125 110.125L141.375 111.375L141.875 112.125L142.875 112.625L142.125 112.875L139.875 112.375L136.375 112.125L133.625 111.625L133.125 110.875L133.625 110.375L132.625 109.375L132.875 108.875Z" fill="#FEFEFF"/>
<path d="M123.375 96.375L124.375 96.625L129.875 99.125L133.625 100.625L136.375 102.375L136.125 103.125L135.125 102.875L131.625 101.375L129.125 101.125L123.875 97.625L123.375 96.375Z" fill="#FEFEFF"/>
<path d="M145.125 116.375L146.875 116.625L148.125 118.375V120.125L147.125 121.625L144.625 123.375L143.375 124.375L142.125 125.625L141.875 124.875L142.625 123.375L145.125 120.875L145.375 120.125V118.125L144.875 116.875L145.125 116.375Z" fill="#FEFEFF"/>
<path d="M126.125 91.875L127.875 92.125L132.875 95.375L135.875 97.375L136.875 98.375V98.875L135.875 99.125L130.875 96.125L127.625 93.875L126.125 92.375V91.875Z" fill="#FEFEFF"/>
<path d="M110.875 107.875H112.125L111.125 108.125L111.375 108.625L118.375 110.125L121.875 110.625L122.875 111.625L118.875 112.625L118.125 112.375L119.125 112.125L118.625 111.375L115.625 110.875H112.375L110.875 110.375L111.625 109.375L110.125 108.625L110.875 107.875Z" fill="#fff"/>
<path d="M176.375 89.375L177.375 89.875V90.375H178.625L180.125 91.125L182.125 92.875V93.625L183.625 93.875L183.375 95.125L180.875 94.875H180.125L180.375 94.125L178.125 92.625L177.875 91.875L176.875 91.375L175.625 90.625V89.625L176.375 89.375Z" fill="#fff"/>
<path d="M167.125 89.125L168.125 89.375L168.375 90.125L165.625 92.125L164.375 92.875L162.375 93.125L161.375 93.625H160.625V92.625L162.125 91.375L164.125 90.125L167.125 89.125Z" fill="#FEFEFF"/>
<path d="M153.875 118.625H154.125L153.875 120.625L152.625 121.875L151.875 122.125V122.625L150.625 123.625H150.125V124.125L147.625 126.125L146.625 126.625L146.375 126.375V124.625L147.375 124.375V123.875L149.125 123.125L150.375 122.125L152.875 119.625L153.875 118.625Z" fill="#88B0FF"/>
<path d="M94.625 81.375L99.125 83.375L98.625 83.625L99.625 85.125L100.875 86.125L101.625 87.375V87.875H102.125L103.375 89.125L106.125 90.875L107.875 91.875L107.375 92.125L103.375 89.875L100.625 87.875L98.875 86.625L97.875 84.375L95.625 83.125L94.625 82.125V81.375Z" fill="#fff"/>
<path d="M93.375 76.125L94.625 76.625L96.875 78.125L98.625 78.625L98.125 78.875L98.875 80.375L101.375 82.875L105.875 85.875L108.125 87.125L108.625 88.125L106.625 87.625L105.625 86.875V86.375L101.875 83.875L99.375 81.875L97.125 79.375L95.125 78.375L93.625 77.125L93.375 76.125Z" fill="#fff"/>
<path d="M123.875 93.625L125.625 93.875L126.875 94.375L130.625 97.375L130.375 98.125L127.875 97.375L124.625 95.625L123.625 94.625L123.875 93.625Z" fill="#FEFEFF"/>
<path d="M167.125 102.875H173.375L175.375 103.625L174.125 104.625L173.125 104.875H171.125L167.125 103.875L166.625 103.375L167.125 102.875Z" fill="#FEFEFF"/>
<path d="M115.875 113.125L116.375 113.375L116.125 113.875L119.875 114.375L122.625 114.875H126.625L128.875 114.625L129.625 115.375L126.875 116.625L126.125 116.375L127.375 115.625H117.375L116.625 115.125V114.375L115.625 114.125L115.875 113.125Z" fill="#fff"/>
<path d="M138.375 88.125L139.375 89.125L141.625 92.625L142.625 93.875L143.125 94.875V95.625L142.625 96.125L143.125 97.625L142.125 96.625L140.125 94.125L138.625 92.375L139.875 92.625L140.375 92.875L139.375 90.375L138.375 88.625V88.125Z" fill="#BCD2FF"/>
<path d="M98.875 89.875L100.625 90.125L102.125 90.625L101.375 90.875V91.625L102.625 92.125L105.375 94.125L107.375 95.375L108.625 95.875L107.875 96.125L105.625 95.125L102.625 93.875V93.375L101.625 93.125L100.875 92.875L99.625 91.625L98.875 89.875Z" fill="#BCD2FF"/>
<path d="M97.375 72.875L98.875 73.375L102.375 75.375L103.625 76.375L102.375 76.125L99.625 74.625L98.625 74.375L99.625 76.875L101.125 78.625V79.125H101.625L102.375 80.125V80.875L100.875 80.375L99.875 79.375L100.875 79.625L99.375 77.625L98.125 76.125L97.375 73.625V72.875Z" fill="#fff"/>
<path d="M121.625 118.375L121.875 118.875L124.125 119.375L124.875 119.875L127.375 120.125L126.625 120.625H124.625L122.875 121.125H120.375L120.625 120.125L120.875 119.625H121.375L121.625 118.375Z" fill="#fff"/>
<path d="M135.875 82.375L137.125 83.625L139.125 86.375L139.875 87.375V88.125L138.625 87.875H137.875L136.375 85.875L136.625 84.125L135.875 82.875V82.375Z" fill="#BCD2FF"/>
<path d="M158.625 119.875H160.875L164.125 120.375L165.375 120.875L171.375 119.875L170.625 120.625L168.125 121.375L166.375 121.875L164.625 121.625L160.625 120.375L158.625 120.125V119.875Z" fill="#fff"/>
<path d="M138.625 95.875L140.375 97.125V97.625L141.375 98.125L142.875 99.875L141.375 99.375V99.875L140.125 99.375L137.625 97.375L136.375 96.125L137.625 96.625L139.125 97.375L138.625 95.875Z" fill="#fff"/>
<path d="M101.375 95.875L104.125 96.125L105.125 96.625H103.625L104.875 97.625L107.375 99.125L109.875 100.125L108.875 100.375L103.875 98.375L102.375 97.125L101.125 96.375L101.375 95.875Z" fill="#fff"/>
<path d="M137.375 171.375H137.625L137.875 176.375L138.125 178.375V183.875H137.875L137.125 177.125H136.625L136.375 178.125L136.625 175.875L137.125 176.125L137.375 171.375Z" fill="#A9C6FF"/>
<path d="M122.625 62.125L123.625 62.625L123.875 63.375H123.125L124.375 68.875L125.875 72.625V73.375L125.125 72.125L124.125 70.125L122.375 65.375L122.625 64.875V62.125Z" fill="#fff"/>
<path d="M121.875 70.875L122.375 71.625L123.125 73.875L123.625 77.125L122.625 75.875L120.875 73.125V72.125H121.875V70.875Z" fill="#fff"/>
<path d="M117.875 73.875L119.125 74.375L120.625 75.625L120.875 76.375H120.375L120.625 78.125L122.125 80.625L123.125 81.875L122.875 82.375L120.375 79.125L118.875 75.625L117.875 73.875Z" fill="#fff"/>
<path d="M115.625 78.375L116.625 78.625L120.125 81.125L120.625 81.875L119.625 81.375H118.875L120.125 82.875L119.125 82.375L115.625 78.875V78.375Z" fill="#fff"/>
<path d="M159.625 145.375H160.375L159.875 146.375L157.375 148.125L155.625 147.625L156.625 146.875L159.625 145.375Z" fill="#fff"/>
<path d="M145.125 100.375L146.375 101.625L147.875 103.875L148.125 104.875L147.125 104.375L145.875 103.125L144.625 101.625L145.375 101.875L145.125 100.375Z" fill="#fff"/>
<path d="M128.625 83.375L130.375 84.875L134.125 88.875H133.375L130.875 86.875L130.125 85.875L129.625 84.875L128.625 83.875V83.375Z" fill="#B9D0FF"/>
<path d="M127.125 101.625L129.625 102.125L133.625 103.375L133.875 103.875L131.625 103.625L127.625 102.375L127.125 102.125V101.625Z" fill="#88B0FF"/>
<path d="M142.375 158.625L143.375 158.875L144.125 159.875L143.875 160.375L143.125 159.625L143.375 160.875L144.375 163.625L144.125 164.375L142.375 160.875L142.125 159.625L142.375 158.625Z" fill="#B4CDFF"/>
<path d="M112.625 118.875H115.125L116.875 119.125L116.625 119.875L111.375 120.625H107.625V120.375L112.625 119.875L114.875 119.625L114.625 119.375L112.625 119.125V118.875Z" fill="#fff"/>
<path d="M166.375 91.625L167.125 91.875L166.625 92.875L164.625 94.375L163.625 94.125L164.625 93.625L164.875 92.375L166.375 91.625Z" fill="#97B9FF"/>
<path d="M98.875 106.125L101.125 106.625L103.375 107.375V107.875H101.375L98.625 107.375L99.375 106.625L98.875 106.125Z" fill="#fff"/>
<path d="M90.875 61.875L92.125 63.125L93.125 64.875V65.375L91.875 64.875L89.625 62.625H90.375L91.375 63.375L90.875 61.875Z" fill="#fff"/>
<path d="M137.125 113.875H139.875L141.375 114.375L141.625 115.125L138.875 114.875L137.125 114.125V113.875Z" fill="#FEFEFF"/>
<path d="M109.125 96.375L111.875 96.875L112.625 97.625L112.375 97.875H110.125L107.375 97.375V97.125L109.875 97.375L109.125 96.375Z" fill="#fff"/>
<path d="M126.125 73.375L126.875 74.125L129.375 78.125H128.625L126.875 76.125L126.625 74.875L126.125 74.125V73.375Z" fill="#fff"/>
<path d="M109.125 67.125L109.875 67.875L111.125 70.125L110.875 70.875L108.875 69.125L108.625 68.375L109.375 68.625L109.125 67.125Z" fill="#fff"/>
<path d="M166.625 118.875L169.125 119.125L168.625 119.625L165.875 120.125L164.875 119.625V119.125L166.625 118.875Z" fill="#fff"/>
<path d="M154.625 115.875L156.125 116.125L154.625 118.625L154.125 119.625L153.875 118.125L154.625 115.875Z" fill="#95B8FF"/>
<path d="M137.375 171.375H137.625L137.875 177.625L137.125 177.875V177.125H136.625L136.375 178.125L136.625 175.875L137.125 176.125L137.375 171.375Z" fill="#fff"/>
<path d="M109.875 78.875L111.625 80.375L112.625 81.375V81.875L111.375 81.375L109.875 80.375L109.625 79.875H110.125L109.875 78.875Z" fill="#BBD2FF"/>
<path d="M110.125 57.625L110.625 58.125L111.625 60.625V61.875L110.375 60.625L109.625 59.375L109.875 58.875L110.125 59.125V57.625Z" fill="#fff"/>
<path d="M137.125 165.875H137.625L138.125 167.375V168.625L137.625 167.875L137.375 167.375V171.125H137.125L136.875 169.875V166.125L137.125 165.875Z" fill="#fff"/>
<path d="M103.625 72.375L104.625 72.625L106.875 73.875L106.125 75.375L103.875 72.875L103.625 72.375Z" fill="#fff"/>
<path d="M95.875 112.625L99.375 112.875L101.125 113.125V113.375H96.875L97.125 113.875L96.125 113.375L95.875 112.625Z" fill="#fff"/>
<path d="M123.375 82.625L124.875 83.875L126.125 85.375V85.875L124.875 85.375L124.125 84.625V84.125L123.375 83.125V82.625Z" fill="#fff"/>
<path d="M120.875 68.125L122.125 68.625L122.875 69.625L122.625 70.125L121.875 69.625V70.875L121.375 70.125L120.875 68.125Z" fill="#BED4FF"/>
<path d="M114.375 52.125L114.875 52.875L115.375 54.375V55.375H114.875L113.875 53.625L114.375 52.125Z" fill="#fff"/>
<path d="M157.375 186.125L157.875 186.625V190.375H157.625V188.625H157.125V186.875L157.375 186.125Z" fill="#fff"/>
<path d="M98.875 99.375L101.125 100.125L101.625 100.375V100.875H99.375V100.125L98.875 99.375Z" fill="#fff"/>
<path d="M107.875 92.125L109.125 92.375L110.125 93.375L107.875 93.125L106.875 92.625L107.875 92.125Z" fill="#fff"/>
<path d="M134.875 208.625L135.125 209.375L134.625 210.875L133.375 211.125L134.375 209.125L134.875 208.625Z" fill="#fff"/>
<path d="M90.625 89.875L91.875 90.375L92.625 91.125V91.625L91.125 91.375L90.375 90.875H91.125L90.625 89.875Z" fill="#fff"/>
<path d="M87.875 81.625L88.875 82.125L89.875 83.625L88.375 83.375L87.625 82.625H88.125L87.875 81.625Z" fill="#fff"/>
<path d="M106.625 113.125L108.125 113.375V114.125H104.625V113.875H107.125V113.375L106.625 113.125Z" fill="#fff"/>
</svg>
