<svg width="258" height="51" viewBox="0 0 258 51" fill="none" xmlns="http://www.w3.org/2000/svg">
<path d="M15.9103 0.292725L26.0677 35.2147H26.4547L36.612 0.292725H51.7997L35.4512 49.822H17.0712L0.722656 0.292725H15.9103Z" fill="#D76C58"/>
<path d="M64.3929 50.4992C60.4267 50.4992 57.0087 49.7414 54.1388 48.2259C51.2851 46.6942 49.0843 44.5015 47.5365 41.6478C46.0049 38.7779 45.239 35.3437 45.239 31.3453C45.239 27.508 46.0129 24.1545 47.5607 21.2846C49.1085 18.4148 51.2932 16.1818 54.1147 14.5856C56.9361 12.9894 60.2655 12.1914 64.1027 12.1914C66.9081 12.1914 69.4474 12.6267 71.7208 13.4973C73.9941 14.3679 75.9369 15.6336 77.5492 17.2942C79.1614 18.9388 80.4029 20.938 81.2735 23.2919C82.1442 25.6459 82.5795 28.2981 82.5795 31.2485V34.3441H49.3987V26.9921H70.2939C70.2778 25.928 70.0037 24.9929 69.4716 24.1867C68.9557 23.3645 68.2544 22.7276 67.3676 22.2762C66.497 21.8086 65.5054 21.5748 64.3929 21.5748C63.3127 21.5748 62.3212 21.8086 61.4183 22.2762C60.5154 22.7276 59.7899 23.3564 59.2417 24.1626C58.7097 24.9687 58.4275 25.9119 58.3953 26.9921V34.9245C58.3953 36.1176 58.6452 37.1817 59.145 38.1169C59.6448 39.052 60.3622 39.7856 61.2974 40.3176C62.2325 40.8497 63.3611 41.1157 64.6832 41.1157C65.6022 41.1157 66.4405 40.9867 67.1983 40.7287C67.9722 40.4708 68.6332 40.1 69.1814 39.6163C69.7296 39.1165 70.1327 38.5199 70.3906 37.8266H82.5795C82.1603 40.4063 81.1687 42.6474 79.6048 44.5499C78.0409 46.4362 75.9691 47.9034 73.3895 48.9514C70.826 49.9832 67.8271 50.4992 64.3929 50.4992Z" fill="#374158"/>
<path d="M95.9284 28.9268V49.822H82.5788V12.675H95.2513V19.7368H95.6382C96.4444 17.3829 97.8632 15.5368 99.8947 14.1987C101.942 12.8605 104.328 12.1914 107.053 12.1914C109.681 12.1914 111.963 12.796 113.897 14.0052C115.848 15.1983 117.356 16.8428 118.42 18.9388C119.5 21.0347 120.032 23.429 120.016 26.1215V49.822H106.666V28.9268C106.682 27.0888 106.215 25.6459 105.264 24.5979C104.328 23.5499 103.022 23.0259 101.346 23.0259C100.249 23.0259 99.2901 23.2677 98.4678 23.7514C97.6617 24.219 97.0409 24.8961 96.6056 25.7829C96.1703 26.6535 95.9446 27.7015 95.9284 28.9268Z" fill="#374158"/>
<path d="M143.311 12.675V22.3487H118.836V12.675H143.311ZM123.576 3.77525H136.926V37.875C136.926 38.3909 137.015 38.8263 137.192 39.181C137.369 39.5195 137.644 39.7775 138.014 39.9549C138.385 40.1161 138.861 40.1967 139.441 40.1967C139.844 40.1967 140.312 40.1483 140.844 40.0516C141.392 39.9549 141.795 39.8742 142.053 39.8097L143.988 49.1932C143.391 49.3706 142.537 49.5882 141.424 49.8462C140.328 50.1042 139.022 50.2735 137.506 50.3541C134.443 50.5153 131.872 50.2009 129.792 49.4109C127.712 48.6047 126.148 47.3391 125.1 45.614C124.052 43.8888 123.544 41.7284 123.576 39.1326V3.77525Z" fill="#374158"/>
<path d="M143.991 49.822V12.675H156.954V19.7368H157.341C158.018 17.1249 159.09 15.2144 160.557 14.0052C162.04 12.796 163.774 12.1914 165.757 12.1914C166.337 12.1914 166.91 12.2397 167.474 12.3365C168.054 12.4171 168.611 12.538 169.143 12.6992V24.09C168.482 23.8643 167.667 23.695 166.7 23.5821C165.733 23.4693 164.902 23.4128 164.209 23.4128C162.903 23.4128 161.726 23.7111 160.678 24.3077C159.646 24.8881 158.832 25.7103 158.235 26.7745C157.639 27.8224 157.341 29.0558 157.341 30.4746V49.822H143.991Z" fill="#374158"/>
<path d="M193.902 15.7706H204.117V49.822H193.868L193.391 46.7574C192.551 47.9378 191.484 48.8913 190.19 49.6177C188.919 50.3441 187.432 50.7074 185.73 50.7074C183.187 50.7074 180.804 50.2306 178.579 49.2772C176.377 48.3238 174.436 47.0071 172.756 45.3272C171.076 43.6247 169.76 41.6724 168.806 39.4704C167.875 37.2457 167.41 34.8621 167.41 32.3196C167.41 29.8906 167.853 27.6205 168.738 25.5093C169.623 23.3981 170.861 21.548 172.45 19.959C174.061 18.3472 175.911 17.0873 178 16.1792C180.111 15.2712 182.37 14.8172 184.776 14.8172C186.728 14.8172 188.499 15.2258 190.088 16.043C191.7 16.8376 193.13 17.8364 194.379 19.0396L193.902 15.7706ZM185.457 40.9006C186.865 40.9006 188.147 40.5373 189.305 39.8109C190.463 39.0845 191.382 38.1083 192.063 36.8825C192.744 35.6566 193.085 34.2946 193.085 32.7963C193.085 31.2981 192.744 29.936 192.063 28.7102C191.382 27.4843 190.463 26.5082 189.305 25.7817C188.147 25.0553 186.865 24.6921 185.457 24.6921C184.05 24.6921 182.767 25.0553 181.609 25.7817C180.474 26.5082 179.566 27.4843 178.885 28.7102C178.227 29.936 177.898 31.2981 177.898 32.7963C177.898 34.2946 178.238 35.6566 178.919 36.8825C179.6 38.1083 180.508 39.0845 181.643 39.8109C182.801 40.5373 184.072 40.9006 185.457 40.9006Z" fill="#374158"/>
<path d="M218.251 50.3057C215.607 50.3057 213.172 49.6124 210.947 48.2259C208.739 46.8393 206.965 44.7353 205.627 41.9138C204.305 39.0923 203.644 35.5372 203.644 31.2485C203.644 26.7664 204.337 23.1226 205.724 20.3173C207.126 17.5119 208.932 15.4562 211.141 14.1503C213.366 12.8443 215.704 12.1914 218.154 12.1914C219.992 12.1914 221.605 12.5138 222.991 13.1587C224.378 13.7875 225.539 14.634 226.474 15.6981C227.409 16.7461 228.118 17.8988 228.602 19.1564H228.795V0.292725H242.145V49.822H228.892V43.7276H228.602C228.086 44.9852 227.344 46.1138 226.377 47.1134C225.426 48.0969 224.265 48.8788 222.894 49.4593C221.54 50.0236 219.992 50.3057 218.251 50.3057ZM223.185 40.0516C224.41 40.0516 225.458 39.6969 226.329 38.9875C227.215 38.262 227.892 37.2462 228.36 35.9403C228.844 34.6182 229.086 33.0543 229.086 31.2485C229.086 29.4105 228.844 27.8386 228.36 26.5326C227.892 25.2105 227.215 24.2029 226.329 23.5096C225.458 22.8002 224.41 22.4455 223.185 22.4455C221.959 22.4455 220.911 22.8002 220.041 23.5096C219.186 24.2029 218.525 25.2105 218.058 26.5326C217.606 27.8386 217.38 29.4105 217.38 31.2485C217.38 33.0865 217.606 34.6666 218.058 35.9886C218.525 37.2946 219.186 38.3023 220.041 39.0117C220.911 39.705 221.959 40.0516 223.185 40.0516Z" fill="#374158"/>
<path d="M250.506 50.5959C248.636 50.5959 247.032 49.9429 245.693 48.637C244.371 47.3149 243.718 45.7107 243.734 43.8243C243.718 41.9863 244.371 40.4144 245.693 39.1084C247.032 37.8025 248.636 37.1495 250.506 37.1495C252.28 37.1495 253.843 37.8025 255.198 39.1084C256.568 40.4144 257.262 41.9863 257.278 43.8243C257.262 45.0819 256.931 46.2266 256.286 47.2585C255.657 48.2742 254.835 49.0884 253.819 49.7011C252.804 50.2976 251.699 50.5959 250.506 50.5959Z" fill="#374158"/>
</svg>
