<svg width="92" height="51" viewBox="0 0 92 51" fill="none" xmlns="http://www.w3.org/2000/svg">
<path d="M41.3725 12.7307L28.8935 49.8777H13.4156L0.936523 12.7307H14.9634L20.9611 37.3019H21.348L27.3457 12.7307H41.3725Z" fill="#fff"/>
<path d="M52.0371 50.3614C49.3929 50.3614 46.9584 49.6681 44.7334 48.2815C42.5246 46.895 40.7511 44.7909 39.4129 41.9694C38.0908 39.1479 37.4298 35.5929 37.4298 31.3042C37.4298 26.8221 38.1231 23.1783 39.5096 20.3729C40.9123 17.5676 42.7181 15.5119 44.9269 14.2059C47.1518 12.9 49.4897 12.247 51.9403 12.247C53.7783 12.247 55.3906 12.5695 56.7772 13.2144C58.1637 13.8432 59.3246 14.6896 60.2597 15.7537C61.1948 16.8017 61.9042 17.9545 62.3879 19.2121H62.5814V0.348389H75.9311V49.8777H62.6781V43.7833H62.3879C61.872 45.0408 61.1303 46.1694 60.163 47.169C59.2117 48.1525 58.0509 48.9345 56.6804 49.5149C55.3261 50.0792 53.7783 50.3614 52.0371 50.3614ZM56.9706 40.1073C58.196 40.1073 59.244 39.7526 60.1146 39.0431C61.0013 38.3176 61.6785 37.3019 62.1461 35.9959C62.6298 34.6739 62.8716 33.11 62.8716 31.3042C62.8716 29.4662 62.6298 27.8942 62.1461 26.5883C61.6785 25.2662 61.0013 24.2585 60.1146 23.5652C59.244 22.8558 58.196 22.5011 56.9706 22.5011C55.7453 22.5011 54.6973 22.8558 53.8267 23.5652C52.9722 24.2585 52.3112 25.2662 51.8436 26.5883C51.3922 27.8942 51.1664 29.4662 51.1664 31.3042C51.1664 33.1422 51.3922 34.7222 51.8436 36.0443C52.3112 37.3503 52.9722 38.3579 53.8267 39.0673C54.6973 39.7606 55.7453 40.1073 56.9706 40.1073Z" fill="#fff"/>
<path d="M84.292 50.6516C82.4218 50.6516 80.8176 49.9986 79.4794 48.6927C78.1573 47.3706 77.5043 45.7664 77.5205 43.88C77.5043 42.042 78.1573 40.47 79.4794 39.1641C80.8176 37.8581 82.4218 37.2051 84.292 37.2051C86.0656 37.2051 87.6295 37.8581 88.9838 39.1641C90.3542 40.47 91.0475 42.042 91.0636 43.88C91.0475 45.1376 90.717 46.2823 90.0721 47.3142C89.4433 48.3299 88.621 49.1441 87.6053 49.7568C86.5895 50.3533 85.4851 50.6516 84.292 50.6516Z" fill="#fff"/>
</svg>
