<svg xmlns="http://www.w3.org/2000/svg" width="114" height="65" viewBox="0 0 114 65" fill="none">
<path d="M51.3354 16.348L35.6207 63.1264H16.1297L0.415039 16.348H18.0788L25.6316 47.29H26.1188L33.6716 16.348H51.3354Z" fill="#374158" fill-opacity="0.1"/>
<path d="M64.765 63.7355C61.4353 63.7355 58.3695 62.8625 55.5677 61.1164C52.7861 59.3703 50.5528 56.7208 48.8676 53.1677C47.2028 49.6147 46.3703 45.1378 46.3703 39.7372C46.3703 34.0929 47.2434 29.5044 48.9894 25.9716C50.7558 22.4389 53.0298 19.8502 55.8113 18.2057C58.6131 16.5611 61.5571 15.7389 64.6432 15.7389C66.9577 15.7389 68.988 16.1449 70.7341 16.957C72.4802 17.7489 73.942 18.8148 75.1196 20.1548C76.2972 21.4745 77.1905 22.9262 77.7996 24.5098H78.0433V0.755127H94.8543V63.1264H78.1651V55.4518H77.7996C77.1499 57.0355 76.216 58.4567 74.9978 59.7155C73.7999 60.954 72.3381 61.9387 70.6123 62.6696C68.9068 63.3802 66.9577 63.7355 64.765 63.7355ZM70.9778 50.8227C72.5208 50.8227 73.8405 50.376 74.9369 49.4827C76.0535 48.5691 76.9063 47.29 77.4951 45.6454C78.1042 43.9805 78.4087 42.0111 78.4087 39.7372C78.4087 37.4226 78.1042 35.4431 77.4951 33.7985C76.9063 32.1337 76.0535 30.8647 74.9369 29.9917C73.8405 29.0983 72.5208 28.6517 70.9778 28.6517C69.4347 28.6517 68.115 29.0983 67.0186 29.9917C65.9426 30.8647 65.1101 32.1337 64.5213 33.7985C63.9529 35.4431 63.6686 37.4226 63.6686 39.7372C63.6686 42.0518 63.9529 44.0415 64.5213 45.7063C65.1101 47.3509 65.9426 48.6198 67.0186 49.5132C68.115 50.3862 69.4347 50.8227 70.9778 50.8227Z" fill="#374158" fill-opacity="0.1"/>
<path d="M105.383 64.101C105.383 64.101 101.008 63.2787 99.3226 61.6341C97.6577 59.9693 96.8354 57.9491 96.8558 55.5737C96.8354 53.2591 97.6577 51.2795 99.3226 49.635C101.008 47.9904 103.028 47.1681 105.383 47.1681C107.616 47.1681 109.586 47.9904 111.291 49.635C113.017 51.2795 113.89 53.2591 113.91 55.5737C113.89 57.1573 113.474 58.5988 112.662 59.8982C111.87 61.1773 110.834 62.2026 109.555 62.9742C108.276 63.7254 105.383 64.101 105.383 64.101Z" fill="#374158" fill-opacity="0.1"/>
</svg>